<svg xmlns="http://www.w3.org/2000/svg" viewBox="0 0 512 512">
  <defs>
    <linearGradient id="bg" x1="0%" y1="0%" x2="100%" y2="100%">
      <stop offset="0%" style="stop-color:#14224e"/>
      <stop offset="100%" style="stop-color:#0a1128"/>
    </linearGradient>
  </defs>

  <!-- Background -->
  <rect width="512" height="512" rx="64" fill="url(#bg)"/>

  <!-- Bingo Grid -->
  <g transform="translate(80, 100)">
    <!-- Grid cells -->
    <rect x="0" y="0" width="60" height="60" rx="8" fill="#283a6b"/>
    <rect x="70" y="0" width="60" height="60" rx="8" fill="#283a6b"/>
    <rect x="140" y="0" width="60" height="60" rx="8" fill="#4f46e5"/>
    <rect x="210" y="0" width="60" height="60" rx="8" fill="#283a6b"/>
    <rect x="280" y="0" width="60" height="60" rx="8" fill="#4f46e5"/>

    <rect x="0" y="70" width="60" height="60" rx="8" fill="#283a6b"/>
    <rect x="70" y="70" width="60" height="60" rx="8" fill="#4f46e5"/>
    <rect x="140" y="70" width="60" height="60" rx="8" fill="#283a6b"/>
    <rect x="210" y="70" width="60" height="60" rx="8" fill="#283a6b"/>
    <rect x="280" y="70" width="60" height="60" rx="8" fill="#283a6b"/>

    <rect x="0" y="140" width="60" height="60" rx="8" fill="#4f46e5"/>
    <rect x="70" y="140" width="60" height="60" rx="8" fill="#283a6b"/>
    <rect x="140" y="140" width="60" height="60" rx="8" fill="#22c55e"/>
    <rect x="210" y="140" width="60" height="60" rx="8" fill="#283a6b"/>
    <rect x="280" y="140" width="60" height="60" rx="8" fill="#4f46e5"/>

    <rect x="0" y="210" width="60" height="60" rx="8" fill="#283a6b"/>
    <rect x="70" y="210" width="60" height="60" rx="8" fill="#283a6b"/>
    <rect x="140" y="210" width="60" height="60" rx="8" fill="#283a6b"/>
    <rect x="210" y="210" width="60" height="60" rx="8" fill="#4f46e5"/>
    <rect x="280" y="210" width="60" height="60" rx="8" fill="#283a6b"/>

    <rect x="0" y="280" width="60" height="60" rx="8" fill="#4f46e5"/>
    <rect x="70" y="280" width="60" height="60" rx="8" fill="#283a6b"/>
    <rect x="140" y="280" width="60" height="60" rx="8" fill="#283a6b"/>
    <rect x="210" y="280" width="60" height="60" rx="8" fill="#283a6b"/>
    <rect x="280" y="280" width="60" height="60" rx="8" fill="#4f46e5"/>
  </g>

  <!-- Music note -->
  <g transform="translate(190, 190)" fill="#ffffff">
    <circle cx="35" cy="85" r="20"/>
    <circle cx="95" cy="70" r="20"/>
    <rect x="50" y="0" width="8" height="85"/>
    <rect x="110" y="0" width="8" height="70"/>
    <path d="M50 0 L118 0 L118 20 L50 20 Z"/>
    <path d="M50 30 L118 15 L118 35 L50 50 Z"/>
  </g>
</svg>
