<?xml version="1.0" encoding="UTF-8"?>
<svg id="Layer_1" xmlns="http://www.w3.org/2000/svg" version="1.1" viewBox="0 0 2400 420">
  <!-- Generator: Adobe Illustrator 29.8.2, SVG Export Plug-In . SVG Version: 2.1.1 Build 3)  -->
  <defs>
    <style>
      .st0 {
        fill: #111;
      }

      .st1, .st2 {
        isolation: isolate;
      }

      .st2 {
        opacity: .95;
      }

      .st3 {
        fill: #9b123a;
      }
    </style>
  </defs>
  <g class="st1">
    <path class="st0" d="M530.15,234.76l36.57-92.29h46.22v6.33c-4.65,0-8.15.66-10.53,1.98-2.37,1.32-3.93,3.7-4.67,7.12-.74,3.43-1.11,8.37-1.11,14.8v61.42c0,6.96.42,12.11,1.27,15.43.84,3.33,2.56,5.52,5.15,6.57,2.58,1.06,6.46,1.69,11.64,1.9v6.33h-59.52v-6.33c5.28-.21,9.21-.84,11.79-1.9,2.58-1.05,4.3-3.17,5.14-6.33.84-3.17,1.27-8.02,1.27-14.56v-74.09h-.79l-42.58,104.8h-11.71l-44.01-104.8h-.63v72.98c0,6.96.42,12.11,1.27,15.43.84,3.33,2.56,5.52,5.15,6.57,2.58,1.06,6.46,1.69,11.64,1.9v6.33h-48.76v-6.33c5.28-.21,9.21-.84,11.79-1.9,2.58-1.05,4.33-3.17,5.22-6.33.9-3.17,1.35-8.02,1.35-14.56v-63.64c0-6.02-.4-10.66-1.19-13.93-.79-3.27-2.37-5.57-4.75-6.89-2.37-1.32-5.94-1.98-10.69-1.98v-6.33h47.97l36.88,92.29h.63Z"/>
    <path class="st0" d="M762.53,181.72v33.56c0,11.93-1.77,21.61-5.3,29.05-3.54,7.44-9.05,12.9-16.54,16.38-7.49,3.48-17.31,5.22-29.44,5.22-16.99,0-29.42-3.56-37.28-10.69-7.86-7.12-11.79-18.49-11.79-34.11v-43.37c0-5.49-.08-9.87-.24-13.14-.16-3.27-.45-5.83-.87-7.68-.42-1.85-1-3.3-1.74-4.35-.95-1.48-2.32-2.48-4.12-3.01-1.8-.53-4.54-.79-8.23-.79v-6.33h56.83v6.33c-4.43,0-7.71.24-9.81.71-2.11.48-3.75,1.4-4.91,2.77-1.37,1.69-2.32,4.3-2.85,7.84-.53,3.54-.79,9.42-.79,17.65v41.48c0,11.93,2.58,20.79,7.76,26.59,5.17,5.81,13.03,8.71,23.59,8.71,21.74,0,32.61-12.08,32.61-36.25v-36.57c0-8.76-.32-15.22-.95-19.39-.63-4.17-1.85-7.25-3.64-9.26-1.37-1.48-3.25-2.56-5.62-3.25-2.37-.69-5.62-1.03-9.74-1.03v-6.33h51.29v6.33c-3.91,0-6.91.29-9.02.87-2.11.58-3.75,1.61-4.91,3.09-1.58,2.01-2.69,5.14-3.32,9.42-.63,4.27-.95,10.79-.95,19.55Z"/>
    <path class="st0" d="M816.2,264.36l-2.37-40.37h6.17c1.48,9.92,5.51,17.78,12.11,23.59,6.59,5.81,14.64,8.71,24.14,8.71,7.92,0,14.3-1.82,19.15-5.46,4.85-3.64,7.28-8.36,7.28-14.17,0-3.38-.77-6.23-2.3-8.55-1.53-2.32-4.43-4.62-8.71-6.89-4.27-2.27-10.53-4.93-18.76-7.99-12.24-4.64-21.35-10.16-27.31-16.54-5.96-6.38-8.94-13.8-8.94-22.24,0-6.65,1.66-12.48,4.99-17.49,3.32-5.01,7.92-8.94,13.77-11.79,5.86-2.85,12.64-4.27,20.34-4.27,10.45,0,20.21,3.38,29.29,10.13l2.85-7.92h3.8l1.74,34.19h-6.17c-2.53-8.65-6.49-15.28-11.87-19.87-5.38-4.59-11.61-6.89-18.68-6.89-6.44,0-11.71,1.61-15.83,4.83-4.12,3.22-6.17,7.36-6.17,12.43,0,2.96.71,5.52,2.14,7.68,1.42,2.16,4.09,4.27,7.99,6.33,3.9,2.06,9.5,4.46,16.78,7.2,14.77,5.6,25.38,11.58,31.82,17.97,6.44,6.39,9.66,13.96,9.66,22.72,0,7.07-2.01,13.35-6.02,18.84-4.01,5.49-9.55,9.76-16.62,12.82-7.07,3.06-15.25,4.59-24.54,4.59-6.23,0-11.93-.87-17.1-2.61-5.17-1.74-10.4-4.56-15.67-8.47l-3.17,9.5h-3.8Z"/>
    <path class="st0" d="M939.2,264.36v-6.33c4.75-.21,8.31-.84,10.69-1.9,2.37-1.05,3.96-3.17,4.75-6.33s1.19-8.02,1.19-14.56v-63.64c0-6.02-.34-10.61-1.03-13.77-.69-3.17-2.11-5.41-4.27-6.73-2.16-1.32-5.41-2.08-9.74-2.3v-6.33h53.35v6.33c-4.33.21-7.57.98-9.74,2.3-2.16,1.32-3.59,3.56-4.27,6.73-.69,3.17-1.03,7.76-1.03,13.77v63.64c0,6.54.4,11.4,1.19,14.56s2.37,5.28,4.75,6.33c2.37,1.06,5.94,1.69,10.69,1.9v6.33h-56.51Z"/>
    <path class="st0" d="M1132.01,152.28l3.01-9.81h7.76l-3.17,40.05h-6.33c-2.22-9.71-6.52-17.36-12.9-22.95-6.39-5.59-14.12-8.39-23.19-8.39-12.45,0-22.08,4.75-28.89,14.25s-10.21,22.53-10.21,39.1,3.38,28.81,10.13,37.68c6.75,8.86,16.62,13.3,29.6,13.3,10.45,0,19.15-2.87,26.12-8.63,6.97-5.75,11.92-14.22,14.88-25.41h6.97v42.9h-7.44l-2.22-12.51c-11.61,9.39-25.7,14.09-42.27,14.09-12.77,0-23.9-2.48-33.4-7.44-9.5-4.96-16.86-11.95-22.08-20.97-5.22-9.02-7.84-19.71-7.84-32.06,0-9.6,1.58-18.34,4.75-26.2,3.17-7.86,7.62-14.67,13.38-20.42,5.75-5.75,12.64-10.18,20.66-13.3,8.02-3.11,16.83-4.67,26.44-4.67,6.44,0,12.48.9,18.13,2.69,5.64,1.8,11.69,4.7,18.13,8.71Z"/>
    <path class="st0" d="M1247.25,264.36v-6.33c4.75-.21,8.31-.76,10.69-1.66,2.38-.9,3.98-2.61,4.83-5.14.84-2.53,1.27-6.28,1.27-11.24v-73.14c0-4.96-.32-8.68-.95-11.16-.63-2.48-1.93-4.19-3.88-5.14-1.95-.95-4.83-1.53-8.63-1.74v-6.33h50.82c15.83,0,28.07,2.59,36.73,7.76,8.65,5.17,12.98,12.45,12.98,21.85,0,12.56-9.02,21.43-27.07,26.6v.63c7.81,0,14.54,1.42,20.18,4.27,5.64,2.85,10.02,6.75,13.14,11.71,3.11,4.96,4.67,10.61,4.67,16.94,0,5.38-1.29,10.08-3.88,14.09-2.59,4.01-6.31,7.39-11.16,10.13-9.39,5.28-22.32,7.92-38.78,7.92h-60.95ZM1296.64,195.5c4.75,0,8.89-.45,12.43-1.35,3.54-.9,6.46-2.19,8.79-3.88,5.07-3.48,7.6-8.92,7.6-16.31s-1.9-13.27-5.7-16.7c-3.8-3.43-9.92-5.14-18.36-5.14h-11.24c-1.9,0-2.85.9-2.85,2.69v40.68h9.34ZM1309.3,254.7c16.99,0,25.49-7.65,25.49-22.95,0-9.39-3.06-16.25-9.18-20.58-3.17-2.22-7.28-3.8-12.35-4.75-5.07-.95-11.19-1.42-18.36-1.42h-7.6v31.66c0,6.44,1.69,11.06,5.07,13.85,3.38,2.8,9.02,4.2,16.94,4.2Z"/>
    <path class="st0" d="M1397.16,264.36v-6.33c4.75-.21,8.31-.84,10.69-1.9,2.37-1.05,3.96-3.17,4.75-6.33.79-3.17,1.19-8.02,1.19-14.56v-63.64c0-6.02-.34-10.61-1.03-13.77-.69-3.17-2.11-5.41-4.27-6.73-2.16-1.32-5.41-2.08-9.74-2.3v-6.33h53.35v6.33c-4.33.21-7.57.98-9.74,2.3-2.17,1.32-3.59,3.56-4.27,6.73-.69,3.17-1.03,7.76-1.03,13.77v63.64c0,6.54.4,11.4,1.19,14.56.79,3.17,2.38,5.28,4.75,6.33,2.38,1.06,5.94,1.69,10.69,1.9v6.33h-56.51Z"/>
    <path class="st0" d="M1588.71,265.94l-70.13-99.89h-.63v68.07c0,6.96.4,12.11,1.19,15.43.79,3.33,2.38,5.52,4.75,6.57,2.37,1.06,5.88,1.69,10.53,1.9v6.33h-47.02v-6.33c5.17-.21,9.05-.84,11.64-1.9,2.58-1.05,4.33-3.17,5.22-6.33.9-3.17,1.35-8.02,1.35-14.56v-63.64c0-6.02-.4-10.61-1.19-13.77-.79-3.17-2.38-5.41-4.75-6.73-2.38-1.32-5.94-2.08-10.69-2.3v-6.33h44.17l63.8,91.5h.63v-61.26c0-6.97-.4-12.11-1.19-15.43-.79-3.32-2.35-5.54-4.67-6.65-2.32-1.11-5.86-1.71-10.61-1.82v-6.33h47.02v6.33c-5.17.11-9.05.71-11.63,1.82-2.59,1.11-4.33,3.25-5.22,6.41-.9,3.17-1.35,8.02-1.35,14.56v94.35h-21.21Z"/>
    <path class="st0" d="M1722.15,265.94c-12.67,0-23.61-2.45-32.85-7.36-9.24-4.91-16.38-11.87-21.45-20.9-5.07-9.02-7.6-19.71-7.6-32.06s2.69-24.17,8.07-33.88c5.38-9.71,12.87-17.28,22.48-22.72,9.6-5.43,20.68-8.15,33.24-8.15,6.54,0,12.77.9,18.68,2.69,5.91,1.8,12.29,4.7,19.15,8.71l3.01-9.81h5.7v40.05h-7.92c-2.01-9.92-6.23-17.62-12.67-23.11-6.44-5.49-14.46-8.23-24.06-8.23-12.03,0-21.42,4.7-28.18,14.09-6.75,9.39-10.13,22.43-10.13,39.1s3.3,28.94,9.89,37.76c6.59,8.81,16.07,13.22,28.42,13.22,8.87,0,15.83-2.32,20.9-6.96,5.07-4.64,7.6-10.97,7.6-19,0-4.85-1.29-8.44-3.88-10.76-2.59-2.32-6.83-3.69-12.74-4.12v-6.33h51.29v6.33c-5.17,0-8.76,1.14-10.76,3.4-2.01,2.27-3.01,6.36-3.01,12.27v21.05c-3.06,0-5.57.16-7.52.47-1.95.32-4.01,1-6.17,2.06-2.16,1.06-5.2,2.75-9.1,5.07-8.02,4.75-18.15,7.12-30.39,7.12Z"/>
    <path class="st0" d="M1889.48,140.88c9.5,0,18.34,1.61,26.52,4.83,8.18,3.22,15.36,7.7,21.53,13.46,6.17,5.75,10.97,12.48,14.41,20.18,3.43,7.7,5.14,16.04,5.14,25.01s-1.74,16.57-5.22,24.06c-3.48,7.49-8.31,14.04-14.48,19.63-6.17,5.59-13.35,9.97-21.53,13.14-8.18,3.17-16.97,4.75-26.36,4.75s-18.18-1.58-26.36-4.75c-8.18-3.17-15.36-7.54-21.53-13.14-6.17-5.59-11-12.14-14.48-19.63-3.48-7.49-5.22-15.51-5.22-24.06,0-8.97,1.71-17.31,5.14-25.01,3.43-7.7,8.23-14.43,14.41-20.18,6.17-5.75,13.35-10.24,21.53-13.46,8.18-3.22,17.02-4.83,26.52-4.83ZM1889.48,255.65c8.23,0,15.33-2.06,21.29-6.17,5.96-4.12,10.58-10,13.85-17.65,3.27-7.65,4.91-16.65,4.91-26.99,0-10.98-1.61-20.47-4.83-28.49-3.22-8.02-7.84-14.22-13.85-18.6-6.02-4.38-13.14-6.57-21.37-6.57s-15.33,2.19-21.29,6.57c-5.96,4.38-10.58,10.58-13.85,18.6-3.27,8.02-4.91,17.52-4.91,28.49,0,10.34,1.63,19.34,4.91,26.99,3.27,7.65,7.89,13.54,13.85,17.65,5.96,4.12,13.06,6.17,21.29,6.17Z"/>
  </g>
  <g>
    <g>
      <path class="st3" d="M221.11,120c10,45,25,60,70,70-45,10-60,25-70,70-10-45-25-60-70-70,45-10,60-25,70-70Z"/>
      <path class="st3" d="M116.11,95c6,23,17,34,40,40-23,6-34,17-40,40-6-23-17-34-40-40,23-6,34-17,40-40Z"/>
      <path class="st3" d="M331.11,235c6,23,17,34,40,40-23,6-34,17-40,40-6-23-17-34-40-40,23-6,34-17,40-40Z"/>
    </g>
    <g>
      <path class="st3" d="M2181.11,120c10,45,25,60,70,70-45,10-60,25-70,70-10-45-25-60-70-70,45-10,60-25,70-70Z"/>
      <path class="st3" d="M2286.11,95c6,23,17,34,40,40-23,6-34,17-40,40-6-23-17-34-40-40,23-6,34-17,40-40Z"/>
      <path class="st3" d="M2071.11,235c6,23,17,34,40,40-23,6-34,17-40,40-6-23-17-34-40-40,23-6,34-17,40-40Z"/>
    </g>
  </g>
  <g class="st2">
    <path class="st3" d="M1611.11,333.5h-1c-1.93,0-3.5-1.57-3.5-3.5s1.57-3.5,3.5-3.5h1c1.93,0,3.5,1.57,3.5,3.5s-1.57,3.5-3.5,3.5ZM1572.11,333.5h-1c-1.93,0-3.5-1.57-3.5-3.5s1.57-3.5,3.5-3.5h1c1.93,0,3.5,1.57,3.5,3.5s-1.57,3.5-3.5,3.5ZM1533.11,333.5h-1c-1.93,0-3.5-1.57-3.5-3.5s1.57-3.5,3.5-3.5h1c1.93,0,3.5,1.57,3.5,3.5s-1.57,3.5-3.5,3.5ZM1494.11,333.5h-1c-1.93,0-3.5-1.57-3.5-3.5s1.57-3.5,3.5-3.5h1c1.93,0,3.5,1.57,3.5,3.5s-1.57,3.5-3.5,3.5ZM1455.11,333.5h-1c-1.93,0-3.5-1.57-3.5-3.5s1.57-3.5,3.5-3.5h1c1.93,0,3.5,1.57,3.5,3.5s-1.57,3.5-3.5,3.5ZM1416.11,333.5h-1c-1.93,0-3.5-1.57-3.5-3.5s1.57-3.5,3.5-3.5h1c1.93,0,3.5,1.57,3.5,3.5s-1.57,3.5-3.5,3.5ZM1377.11,333.5h-1c-1.93,0-3.5-1.57-3.5-3.5s1.57-3.5,3.5-3.5h1c1.93,0,3.5,1.57,3.5,3.5s-1.57,3.5-3.5,3.5ZM1338.11,333.5h-1c-1.93,0-3.5-1.57-3.5-3.5s1.57-3.5,3.5-3.5h1c1.93,0,3.5,1.57,3.5,3.5s-1.57,3.5-3.5,3.5ZM1299.11,333.5h-1c-1.93,0-3.5-1.57-3.5-3.5s1.57-3.5,3.5-3.5h1c1.93,0,3.5,1.57,3.5,3.5s-1.57,3.5-3.5,3.5ZM1260.11,333.5h-1c-1.93,0-3.5-1.57-3.5-3.5s1.57-3.5,3.5-3.5h1c1.93,0,3.5,1.57,3.5,3.5s-1.57,3.5-3.5,3.5ZM1221.11,333.5h-1c-1.93,0-3.5-1.57-3.5-3.5s1.57-3.5,3.5-3.5h1c1.93,0,3.5,1.57,3.5,3.5s-1.57,3.5-3.5,3.5ZM1182.11,333.5h-1c-1.93,0-3.5-1.57-3.5-3.5s1.57-3.5,3.5-3.5h1c1.93,0,3.5,1.57,3.5,3.5s-1.57,3.5-3.5,3.5ZM1143.11,333.5h-1c-1.93,0-3.5-1.57-3.5-3.5s1.57-3.5,3.5-3.5h1c1.93,0,3.5,1.57,3.5,3.5s-1.57,3.5-3.5,3.5ZM1104.11,333.5h-1c-1.93,0-3.5-1.57-3.5-3.5s1.57-3.5,3.5-3.5h1c1.93,0,3.5,1.57,3.5,3.5s-1.57,3.5-3.5,3.5ZM1065.11,333.5h-1c-1.93,0-3.5-1.57-3.5-3.5s1.57-3.5,3.5-3.5h1c1.93,0,3.5,1.57,3.5,3.5s-1.57,3.5-3.5,3.5ZM1026.11,333.5h-1c-1.93,0-3.5-1.57-3.5-3.5s1.57-3.5,3.5-3.5h1c1.93,0,3.5,1.57,3.5,3.5s-1.57,3.5-3.5,3.5ZM987.11,333.5h-1c-1.93,0-3.5-1.57-3.5-3.5s1.57-3.5,3.5-3.5h1c1.93,0,3.5,1.57,3.5,3.5s-1.57,3.5-3.5,3.5ZM948.11,333.5h-1c-1.93,0-3.5-1.57-3.5-3.5s1.57-3.5,3.5-3.5h1c1.93,0,3.5,1.57,3.5,3.5s-1.57,3.5-3.5,3.5ZM909.11,333.5h-1c-1.93,0-3.5-1.57-3.5-3.5s1.57-3.5,3.5-3.5h1c1.93,0,3.5,1.57,3.5,3.5s-1.57,3.5-3.5,3.5ZM870.11,333.5h-1c-1.93,0-3.5-1.57-3.5-3.5s1.57-3.5,3.5-3.5h1c1.93,0,3.5,1.57,3.5,3.5s-1.57,3.5-3.5,3.5ZM831.11,333.5h-1c-1.93,0-3.5-1.57-3.5-3.5s1.57-3.5,3.5-3.5h1c1.93,0,3.5,1.57,3.5,3.5s-1.57,3.5-3.5,3.5ZM792.11,333.5h-1c-1.93,0-3.5-1.57-3.5-3.5s1.57-3.5,3.5-3.5h1c1.93,0,3.5,1.57,3.5,3.5s-1.57,3.5-3.5,3.5Z"/>
  </g>
</svg>